<?xml version="1.0" encoding="UTF-8" standalone="no"?>
<!-- Generator: Adobe Illustrator 16.0.0, SVG Export Plug-In . SVG Version: 6.00 Build 0)  -->

<svg
   xmlns:dc="http://purl.org/dc/elements/1.1/"
   xmlns:cc="http://creativecommons.org/ns#"
   xmlns:rdf="http://www.w3.org/1999/02/22-rdf-syntax-ns#"
   xmlns:svg="http://www.w3.org/2000/svg"
   xmlns="http://www.w3.org/2000/svg"
   xmlns:sodipodi="http://sodipodi.sourceforge.net/DTD/sodipodi-0.dtd"
   xmlns:inkscape="http://www.inkscape.org/namespaces/inkscape"
   version="1.1"
   id="Layer_1"
   x="0px"
   y="0px"
   width="1562.891"
   height="1181.146"
   viewBox="0 0 1562.891 1181.146"
   xml:space="preserve"
   sodipodi:docname="login_background.svg"
   inkscape:version="0.92.1 r15371"><metadata
     id="metadata4027"><rdf:RDF><cc:Work
         rdf:about=""><dc:format>image/svg+xml</dc:format><dc:type
           rdf:resource="http://purl.org/dc/dcmitype/StillImage" /><dc:title></dc:title></cc:Work></rdf:RDF></metadata><defs
     id="defs4025" /><sodipodi:namedview
     pagecolor="#ffffff"
     bordercolor="#666666"
     borderopacity="1"
     objecttolerance="10"
     gridtolerance="10"
     guidetolerance="10"
     inkscape:pageopacity="0"
     inkscape:pageshadow="2"
     inkscape:window-width="1855"
     inkscape:window-height="1056"
     id="namedview4023"
     showgrid="false"
     inkscape:zoom="0.46521684"
     inkscape:cx="849.09401"
     inkscape:cy="455.92673"
     inkscape:window-x="65"
     inkscape:window-y="24"
     inkscape:window-maximized="1"
     inkscape:current-layer="Layer_1"
     inkscape:snap-grids="true"
     units="px"
     height="2048px"
     width="1"
     fit-margin-top="0"
     fit-margin-left="0"
     fit-margin-right="0"
     fit-margin-bottom="0" /><rect
     x="0"
     width="1562.891"
     height="1181.146"
     id="rect3886"
     y="0"
     style="fill:#c4e8fa;stroke-width:0.89276499" /><path
     d="m 573.85365,1098.08 c 25.567,0 47.866,13.932 59.767,34.608 8.873,-5.853 19.497,-9.269 30.92,-9.269 31.071,0 56.258,25.188 56.258,56.259 0,0.493 -0.022,0.979 -0.037,1.467 h -214.379 c -0.952,-4.563 -1.458,-9.29 -1.458,-14.136 0,-38.069 30.862,-68.929 68.929,-68.929 z"
     id="path3888"
     inkscape:connector-curvature="0"
     style="fill:#6db8a5" /><path
     d="m 422.19165,1052.341 c -39.646,0 -74.225,21.604 -92.675,53.665 -13.762,-9.074 -30.234,-14.371 -47.947,-14.371 -48.179,0 -87.236,39.058 -87.236,87.236 0,0.765 0.035,1.518 0.06,2.274 h 332.422 c 1.476,-7.076 2.262,-14.405 2.262,-21.92 -10e-4,-59.031 -47.856,-106.884 -106.886,-106.884 z"
     id="path3890"
     inkscape:connector-curvature="0"
     style="fill:#76c8b3" /><path
     d="m 1045.1217,1052.341 c -39.646,0 -74.22505,21.604 -92.67505,53.665 -13.762,-9.074 -30.234,-14.371 -47.947,-14.371 -48.179,0 -87.236,39.058 -87.236,87.236 0,0.765 0.035,1.518 0.06,2.274 h 332.42205 c 1.476,-7.076 2.262,-14.405 2.262,-21.92 0,-59.031 -47.855,-106.884 -106.886,-106.884 z"
     id="path3892"
     inkscape:connector-curvature="0"
     style="fill:#6db8a5" /><path
     d="m 1221.6097,990.39105 c 58.714,0 109.923,31.99395 137.247,79.47695 20.381,-13.438 44.776,-21.283 71.008,-21.283 71.352,0 129.194,57.843 129.194,129.193 0,1.133 -0.052,2.248 -0.089,3.368 h -492.303 c -2.186,-10.479 -3.35,-21.333 -3.35,-32.462 10e-4,-87.424 70.872,-158.29295 158.293,-158.29295 z"
     id="path3894"
     inkscape:connector-curvature="0"
     style="fill:#76c8b3" /><g
     id="g3908"
     transform="translate(-400.94135,-0.00195205)"><path
       d="m 961.314,222.793 h -59.451 c 1.416,-8.007 2.156,-16.246 2.156,-24.659 0,-77.706 -62.994,-140.699 -140.699,-140.699 -64.643,0 -119.096,43.596 -135.58,102.987 h -52.986 c -68.894,0 -124.743,55.851 -124.743,124.743 0,68.894 55.85,124.744 124.743,124.744 h 203.797 6.529 176.234 c 51.67,0 93.559,-41.889 93.559,-93.558 0,-51.67 -41.889,-93.558 -93.559,-93.558 z"
       id="path3896"
       inkscape:connector-curvature="0"
       style="fill:#a7dff8" /><path
       d="m 1077.836,589.147 h -20.713 c -13.686,-37.352 -49.553,-64.006 -91.646,-64.006 -50.398,0 -91.869,38.211 -97.029,87.241 h -19.295 c -29.797,0 -53.951,24.155 -53.951,53.953 0,29.798 24.154,53.952 53.951,53.952 h 140.77 41.369 46.545 c 36.213,0 65.57,-29.355 65.57,-65.57 -10e-4,-36.212 -29.358,-65.57 -65.571,-65.57 z"
       id="path3898"
       inkscape:connector-curvature="0"
       style="fill:#a7dff8" /><path
       d="m 1831.852,787.121 h -7.145 c -5.508,-20.528 -24.24,-35.643 -46.508,-35.643 -26.596,0 -48.156,21.561 -48.156,48.156 0,1.404 0.064,2.795 0.182,4.17 h -6.816 c -14.764,0 -26.732,11.969 -26.732,26.732 0,14.763 11.969,26.731 26.732,26.731 h 51.947 c 0.125,0 0.252,-0.003 0.379,-0.004 0.125,10e-4 0.252,0.004 0.379,0.004 h 55.738 c 19.371,0 35.074,-15.702 35.074,-35.074 0,-19.369 -15.703,-35.072 -35.074,-35.072 z"
       id="path3900"
       inkscape:connector-curvature="0"
       style="fill:#a7dff8" /><path
       d="M 1718.771,372.627 H 1691.3 c -21.188,-78.94 -93.227,-137.062 -178.855,-137.062 -102.273,0 -185.184,82.908 -185.184,185.183 0,5.404 0.246,10.75 0.699,16.038 h -26.217 c -56.775,0 -102.799,46.024 -102.799,102.799 0,56.775 46.023,102.799 102.799,102.799 h 199.766 c 0.486,0 0.973,-0.012 1.457,-0.019 0.488,0.007 0.971,0.019 1.459,0.019 h 214.346 c 74.492,0 134.879,-60.387 134.879,-134.878 0,-74.491 -60.386,-134.879 -134.879,-134.879 z"
       id="path3902"
       inkscape:connector-curvature="0"
       style="fill:#a7dff8" /><path
       d="m 1334.992,127.263 h 16.309 c -0.389,-2.197 -0.592,-4.457 -0.592,-6.766 0,-21.316 17.281,-38.598 38.598,-38.598 17.734,0 32.672,11.959 37.195,28.252 h 14.535 c 18.9,0 34.221,15.321 34.221,34.222 0,18.899 -15.32,34.222 -34.221,34.222 h -55.906 -1.791 -48.348 c -14.176,0 -25.666,-11.491 -25.666,-25.666 0,-14.176 11.49,-25.666 25.666,-25.666 z"
       id="path3904"
       inkscape:connector-curvature="0"
       style="fill:#a7dff8" /><path
       d="m 1717.898,213.407 h 4.186 c 3.229,-12.027 14.203,-20.883 27.25,-20.883 15.584,0 28.215,12.633 28.215,28.215 0,0.823 -0.037,1.638 -0.105,2.443 h 3.994 c 8.65,0 15.662,7.013 15.662,15.663 0,8.649 -7.012,15.663 -15.662,15.663 H 1751 c -0.074,0 -0.146,-0.002 -0.221,-0.003 -0.074,0.001 -0.148,0.003 -0.223,0.003 h -32.658 c -11.35,0 -20.551,-9.201 -20.551,-20.551 0,-11.35 9.202,-20.55 20.551,-20.55 z"
       id="path3906"
       inkscape:connector-curvature="0"
       style="fill:#a7dff8" /></g><path
     stroke-miterlimit="10"
     d="M 277.91265,699.43205"
     id="path3944"
     inkscape:connector-curvature="0"
     style="fill:none;stroke:#ffffff;stroke-width:6.42959976;stroke-linecap:round;stroke-linejoin:round;stroke-miterlimit:10;stroke-dasharray:0.0269, 16.8777" /><path
     d="m 1224.6757,397.99305 -130.116,116.538 c -1.001,0.896 -1.573,2.177 -1.573,3.521 l 30.023,169.855 c 0,2.609 2.115,4.725 4.725,4.725 h 100.096 100.093 c 2.609,0 4.726,-2.115 4.726,-4.725 l 30.023,-169.855 c 0,-1.344 -0.572,-2.624 -1.573,-3.521 l -130.116,-116.538 c -1.796,-1.606 -4.512,-1.606 -6.308,0 z"
     id="path3964"
     inkscape:connector-curvature="0"
     style="fill:#ef3e42" /><path
     d="m 1362.6737,518.05305 -6.004,35.198 c 0,-1.334 -125.684,-110.045 -125.684,-110.045 -1.797,-1.603 -4.518,-1.603 -6.313,0 0,0 -125.684,108.71 -125.684,110.045 l -6.004,-35.198 c 0,-1.349 0.569,-2.622 1.579,-3.521 l 130.109,-116.534 c 1.796,-1.615 4.517,-1.615 6.313,0 l 130.108,116.533 c 1.01,0.9 1.58,2.173 1.58,3.522 z"
     id="path3966"
     inkscape:connector-curvature="0"
     style="fill:#c83337" /><g
     id="g3972"
     transform="translate(-400.94135,-0.00195205)"><rect
       x="1384.702"
       y="923.95697"
       transform="rotate(89.998623,1628.7818,936.71348)"
       width="488.159"
       height="25.513"
       id="rect3968"
       style="fill:#233e99" /><rect
       x="1616.022"
       y="692.64203"
       width="25.514"
       height="45.254002"
       id="rect3970"
       style="fill:#15266f" /></g><path
     d="m 1218.3087,358.31705 -162.929,149.623 c -4.185,3.843 -1.466,10.822 4.216,10.822 h 29.042 c 1.544,0 3.031,-0.572 4.177,-1.606 l 130.84,-118.112 c 2.373,-2.143 5.98,-2.143 8.352,0 l 130.84,118.112 c 1.146,1.034 2.634,1.606 4.177,1.606 h 29.042 c 5.682,0 8.399,-6.979 4.216,-10.822 l -162.931,-149.623 c -5.384,-4.945 -13.658,-4.945 -19.042,0 z"
     id="path3974"
     inkscape:connector-curvature="0"
     style="fill:#00aab7" /><ellipse
     cx="1227.8296"
     cy="587.38202"
     rx="49.401001"
     ry="49.762001"
     id="ellipse3976"
     style="fill:#233e99" /><path
     d="m 1277.2347,587.37205 c 0,4.307 -0.543,8.484 -1.567,12.478 -5.494,-21.444 -24.827,-37.288 -47.837,-37.288 -23.012,0 -42.344,15.844 -47.838,37.288 -1.023,-3.993 -1.568,-8.17 -1.568,-12.478 0,-27.475 22.118,-49.754 49.406,-49.754 27.287,0 49.404,22.279 49.404,49.754 z"
     id="path3978"
     inkscape:connector-curvature="0"
     style="fill:#15266f" /><g
     id="g3986"
     transform="translate(-400.94135,-0.00195205)"><circle
       cx="1542.391"
       cy="625.22699"
       r="10.424"
       id="circle3980"
       style="fill:#c83337" /><circle
       cx="1573.655"
       cy="662.15302"
       r="10.424"
       id="circle3982"
       style="fill:#c83337" /><circle
       cx="1666.334"
       cy="507.185"
       r="10.424"
       id="circle3984"
       style="fill:#c83337" /></g><path
     d="m 930.03665,604.18805 -86.013,77.036 c -0.661,0.593 -1.039,1.439 -1.039,2.327 v 171.424 c 0,1.725 1.397,3.123 3.123,3.123 h 86.014 86.01205 c 1.725,0 3.124,-1.398 3.124,-3.123 v -171.423 c 0,-0.888 -0.378,-1.734 -1.04,-2.327 l -86.01205,-77.036 c -1.187,-1.062 -2.983,-1.062 -4.169,-10e-4 z"
     id="path3988"
     inkscape:connector-curvature="0"
     style="fill:#00aab7" /><path
     d="m 1021.2577,683.55305 v 29.884 c 0,-0.882 -87.05105,-79.36 -87.05105,-79.36 -1.188,-1.06 -2.986,-1.06 -4.173,0 0,0 -87.051,78.478 -87.051,79.36 v -29.884 c 0,-0.892 0.376,-1.733 1.044,-2.328 l 86.007,-77.033 c 1.187,-1.066 2.985,-1.066 4.173,0 l 86.00705,77.033 c 0.667,0.594 1.044,1.436 1.044,2.328 z"
     id="path3990"
     inkscape:connector-curvature="0"
     style="fill:#00909b" /><rect
     x="858.13013"
     y="-944.24329"
     transform="rotate(89.99809)"
     width="322.69199"
     height="24.299"
     id="rect3992"
     style="fill:#233e99" /><rect
     x="919.97565"
     y="858.10303"
     width="24.299999"
     height="29.915001"
     id="rect3994"
     style="fill:#15266f" /><path
     d="m 925.82765,577.96105 -107.702,98.907 c -2.767,2.54 -0.97,7.153 2.786,7.153 h 19.198 c 1.021,0 2.004,-0.378 2.761,-1.062 l 86.49,-78.077 c 1.569,-1.416 3.954,-1.416 5.521,0 l 86.49005,78.077 c 0.758,0.684 1.741,1.062 2.762,1.062 h 19.197 c 3.756,0 5.553,-4.613 2.787,-7.153 l -107.70305,-98.907 c -3.559,-3.269 -9.029,-3.269 -12.587,0 z"
     id="path3996"
     inkscape:connector-curvature="0"
     style="fill:#233e99" /><ellipse
     cx="932.12067"
     cy="761.84204"
     rx="32.655998"
     ry="32.895"
     id="ellipse3998"
     style="fill:#233e99" /><path
     d="m 964.77965,761.83505 c 0,2.848 -0.359,5.609 -1.036,8.248 -3.632,-14.175 -16.412,-24.648 -31.622,-24.648 -15.212,0 -27.991,10.474 -31.623,24.648 -0.677,-2.639 -1.037,-5.4 -1.037,-8.248 0,-18.161 14.621,-32.889 32.66,-32.889 18.037,0 32.658,14.728 32.658,32.889 z"
     id="path4000"
     inkscape:connector-curvature="0"
     style="fill:#15266f" /><circle
     cx="979.66766"
     cy="749.92004"
     r="6.8909998"
     id="circle4002"
     style="fill:#00909b" /><circle
     cx="986.34869"
     cy="822.03302"
     r="6.8909998"
     id="circle4004"
     style="fill:#00909b" /><circle
     cx="907.47369"
     cy="708.37805"
     r="6.8909998"
     id="circle4006"
     style="fill:#00909b" /><g
     id="g4018"
     transform="translate(-400.94135,-0.00195205)"><g
       id="g4014"><path
         d="m 1146.487,789.085 -16.535,-3.893 c 0.689,2.113 1.148,4.326 1.285,6.658 0.208,3.309 -0.298,6.678 -1.254,9.676 v 0.058 c -0.031,0.106 -0.052,0.177 -0.052,0.286 0,0.354 0.198,0.662 0.49,0.824 l 0.037,0.035 c 0,0 0,0.029 0.047,0.029 0.114,0.053 0.256,0.088 0.407,0.088 0.198,0 0.371,-0.088 0.532,-0.182 0.032,0 0.048,-0.016 0.048,-0.016 l 0.376,-0.309 0.339,-0.25 14.441,-12.389 c 0.072,-0.092 0.125,-0.227 0.099,-0.363 -0.041,-0.115 -0.13,-0.205 -0.26,-0.252 z"
         id="path4008"
         inkscape:connector-curvature="0"
         style="fill:#233e99" /><g
         id="g4012"><path
           d="m 992.771,753.261 -0.533,0.922 c -5.071,8.674 -2.131,19.86 6.534,24.945 l 5.379,3.127 c -1.228,2.303 -1.891,4.762 -2.068,7.229 l 72.006,11.332 z"
           id="path4010"
           inkscape:connector-curvature="0"
           style="fill:#233e99" /></g></g><path
       d="m 989.783,896.763 c 5.724,5.963 14.425,7.5 21.679,4.328 l 5.803,-18.822 c 23.1,19.102 57.313,18.65 79.889,-2.303 17.094,-15.902 22.933,-39.342 17.235,-60.395 6.257,-3.045 10.91,-8.717 12.534,-15.559 0.078,-0.386 0.178,-0.758 0.256,-1.166 0.084,-0.451 0.146,-0.893 0.22,-1.354 0.099,-0.805 0.151,-1.609 0.151,-2.443 0,-0.098 0.031,-0.197 0.031,-0.297 0,-0.025 0,-0.044 0,-0.044 0,-0.034 0,-0.063 0,-0.093 0,-1.164 -0.104,-2.291 -0.282,-3.404 0,-0.088 -0.021,-0.18 -0.031,-0.262 -1.802,-11.032 -11.516,-19.469 -23.272,-19.469 -0.026,0 -0.026,0 -0.073,0 -0.016,0 -0.036,0 -0.067,0 -0.084,0 -0.167,0.004 -0.256,0.004 -0.444,0.021 -0.898,0.047 -1.337,0.074 -0.037,0.01 -0.079,0.01 -0.12,0.01 -0.507,0.053 -1.009,0.109 -1.51,0.172 -0.198,0.037 -0.392,0.037 -0.569,0.062 -0.078,0.02 -0.162,0.02 -0.235,0.02 -0.041,0.025 -0.062,0.033 -0.099,0.033 -0.1,0.021 -0.198,0.037 -0.309,0.074 -0.178,0.035 -0.35,0.072 -0.548,0.125 -10.691,2.225 -18.734,11.541 -18.734,22.697 0,1.672 0.24,3.301 0.591,4.874 l 0.245,1.017 c 0.052,0.162 0.078,0.318 0.078,0.518 0,1.055 -0.825,2.016 -1.906,1.869 l -0.888,-0.117 -107.115,-16.914 -0.161,1.092 c -1.661,10.436 5.488,20.277 15.935,21.941 l 6.449,1.018 c -1.201,10.166 5.845,19.58 16.039,21.182 l 6.461,1.039 c -1.228,10.145 5.812,19.572 16.002,21.17 l 0.287,0.045 z"
       id="path4016"
       inkscape:connector-curvature="0"
       style="fill:#ef3e42" /></g><path
     stroke-miterlimit="10"
     d="m 4.0076548,906.36305 c 32.7170002,10.809 61.8390002,47.586 89.1240002,51.393 29.140995,4.066 77.103995,10.805 106.061995,2.982 24.902,-6.727 50.825,-36.485 70.299,-54.188 16.11,-14.646 46.866,-30.755 73.228,-21.968 27.299,9.1 53.119,43.99 76.424,58.312 58.125,35.697 102.253,14.915 142.176,-20.369 4.583,-4.051 9.99,-6.688 14.959,-9.797"
     id="path4020"
     inkscape:connector-curvature="0"
     style="fill:none;stroke:#233e99;stroke-width:2.85820007;stroke-linecap:round;stroke-linejoin:round;stroke-miterlimit:10;stroke-dasharray:0.0148, 7.4314" /></svg>