<?xml version="1.0" encoding="utf-8"?>
<!-- Generator: Adobe Illustrator 22.1.0, SVG Export Plug-In . SVG Version: 6.00 Build 0)  -->
<svg version="1.1" id="Layer_1" xmlns="http://www.w3.org/2000/svg" xmlns:xlink="http://www.w3.org/1999/xlink" x="0px" y="0px"
	 viewBox="0 0 460.2 120.8" style="enable-background:new 0 0 460.2 120.8;" xml:space="preserve">
<style type="text/css">
	.st0{fill:#233E99;}
	.st1{fill:#EF3E42;}
</style>
<g>
	<g>
		<path class="st0" d="M96.7,50.7c0.1-0.2,0-0.4-0.1-0.5c-0.1-0.2-0.3-0.2-0.5-0.2H83.9c-0.3,0-0.5,0.2-0.6,0.4L67.6,102l-0.3-0.8
			L49.9,50.3c-0.1-0.2-0.3-0.4-0.5-0.4H37.5c-0.2,0-0.4,0.1-0.5,0.2c-0.1,0.2-0.1,0.4-0.1,0.5L42.9,67l0,0.1l-12.9,35l-0.2-0.7
			L13.5,50.3c-0.1-0.2-0.3-0.4-0.6-0.4H0.6c-0.2,0-0.4,0.1-0.5,0.2C0,50.3,0,50.5,0,50.7l23.2,68.1c0.1,0.2,0.3,0.4,0.6,0.4h11.6
			c0.3,0,0.5-0.1,0.6-0.4l12.8-35.5l12.7,35.5c0.1,0.2,0.3,0.4,0.5,0.4h11.7c0.3,0,0.5-0.2,0.6-0.4L96.7,50.7z"/>
		<path class="st0" d="M175.3,49.9H165c-0.3,0-0.5,0.2-0.6,0.5l-1.5,7.4l-0.3-0.4c-2.1-2.2-4.8-4.2-8.1-6c-4-2.1-8.7-3.1-14.2-3.1
			c-9.9,0-18.2,3.5-24.7,10.5c-6.4,6.9-9.7,15.6-9.7,25.8c0,10.3,3.2,19,9.4,25.9c6.3,6.9,14.7,10.4,25,10.4c5,0,9.6-1.1,13.9-3.2
			c3.5-1.8,6.3-3.9,8.3-6.3l0.3-0.4l1.5,7.8c0.1,0.3,0.3,0.5,0.6,0.5h10.4c0.3,0,0.6-0.3,0.6-0.6V50.5
			C175.9,50.2,175.6,49.9,175.3,49.9z M157.4,101.7c-4.1,4.6-9.4,6.9-15.8,6.9c-6.5,0-11.9-2.3-15.9-6.9c-4.1-4.6-6.1-10.4-6.1-17.2
			c0-6.8,2.1-12.6,6.1-17.2c4-4.6,9.4-6.9,15.9-6.9c6.4,0,11.8,2.3,15.8,6.9c4.1,4.6,6.2,10.4,6.2,17.2
			C163.6,91.4,161.5,97.1,157.4,101.7z"/>
		<path class="st0" d="M249.2,107h-36.3l35.8-46.5c0.1-0.1,0.1-0.2,0.1-0.4v-9.7c0-0.3-0.3-0.6-0.6-0.6h-49.2
			c-0.3,0-0.6,0.3-0.6,0.6v11c0,0.3,0.3,0.6,0.6,0.6h32.5l-35.7,46.5c-0.1,0.1-0.1,0.2-0.1,0.4v9.7c0,0.3,0.3,0.6,0.6,0.6h52.9
			c0.3,0,0.6-0.3,0.6-0.6v-11C249.8,107.2,249.5,107,249.2,107z"/>
		<path class="st0" d="M324.4,58.7c-6.7-6.9-15.4-10.5-25.7-10.5c-10.4,0-19,3.5-25.7,10.5c-6.7,6.9-10,15.6-10,25.8
			c0,10.2,3.4,18.9,10,25.8c6.7,7,15.3,10.5,25.7,10.5c10.4,0,19-3.5,25.7-10.5c6.7-6.9,10.1-15.6,10.1-25.8
			C334.5,74.4,331.1,65.7,324.4,58.7z M314.6,101.8c-4.2,4.5-9.6,6.8-15.9,6.8c-6.3,0-11.7-2.3-15.9-6.8c-4.2-4.5-6.3-10.3-6.3-17.3
			c0-7,2.1-12.8,6.3-17.3c4.2-4.5,9.5-6.8,15.9-6.8c6.3,0,11.7,2.3,15.9,6.8c4.2,4.5,6.4,10.3,6.4,17.3
			C321,91.5,318.8,97.4,314.6,101.8z"/>
	</g>
	<path class="st0" d="M460,23.4l-10.8-2.5c0.5,1.4,0.8,2.8,0.8,4.3c0.1,2.2-0.2,4.4-0.8,6.3v0c0,0.1,0,0.1,0,0.2
		c0,0.2,0.1,0.4,0.3,0.5l0,0c0,0,0,0,0,0c0.1,0,0.2,0.1,0.3,0.1c0.1,0,0.2-0.1,0.3-0.1c0,0,0,0,0,0l0.2-0.2l0.2-0.2l9.4-8.1
		c0.1-0.1,0.1-0.1,0.1-0.2C460.2,23.5,460.1,23.4,460,23.4z"/>
	<g>
		<path class="st0" d="M359.7,0l-0.3,0.6c-3.3,5.7-1.4,13,4.3,16.3l3.5,2c-0.8,1.5-1.2,3.1-1.4,4.7l47,7.4L359.7,0z"/>
	</g>
</g>
<path class="st1" d="M357.8,93.6c3.7,3.9,9.4,4.9,14.1,2.8l3.8-12.3c15.1,12.5,37.4,12.2,52.1-1.5c11.2-10.4,15-25.7,11.3-39.4
	c4.1-2,7.1-5.7,8.2-10.1c0.1-0.3,0.1-0.5,0.2-0.8c0.1-0.3,0.1-0.6,0.1-0.9c0.1-0.5,0.1-1.1,0.1-1.6c0-0.1,0-0.1,0-0.2c0,0,0,0,0,0
	c0,0,0,0,0,0c0-0.8-0.1-1.5-0.2-2.2c0-0.1,0-0.1,0-0.2c-1.2-7.2-7.5-12.7-15.2-12.7c0,0,0,0,0,0c0,0,0,0,0,0c-0.1,0-0.1,0-0.2,0
	c-0.3,0-0.6,0-0.9,0c0,0,0,0-0.1,0c-0.3,0-0.7,0.1-1,0.1c-0.1,0-0.2,0-0.4,0c-0.1,0-0.1,0-0.2,0c0,0,0,0-0.1,0c-0.1,0-0.1,0-0.2,0
	c-0.1,0-0.2,0.1-0.4,0.1c-7,1.5-12.2,7.5-12.2,14.8c0,1.1,0.2,2.2,0.4,3.2l0.2,0.7c0,0.1,0,0.2,0,0.3c0,0.7-0.5,1.3-1.2,1.2
	l-0.6-0.1l-69.9-11l-0.1,0.7c-1.1,6.8,3.6,13.2,10.4,14.3l4.2,0.7c-0.8,6.6,3.8,12.8,10.5,13.8l4.2,0.7c-0.8,6.6,3.8,12.8,10.5,13.8
	l0.2,0L357.8,93.6z"/>
</svg>
